<?xml version="1.0" encoding="UTF-8"?>
<!DOCTYPE svg PUBLIC "-//W3C//DTD SVG 1.1//EN" "http://www.w3.org/Graphics/SVG/1.1/DTD/svg11.dtd">
<svg xmlns="http://www.w3.org/2000/svg" version="1.1" width="1638px" height="2048px" style="shape-rendering:geometricPrecision; text-rendering:geometricPrecision; image-rendering:optimizeQuality; fill-rule:evenodd; clip-rule:evenodd" xmlns:xlink="http://www.w3.org/1999/xlink">
<g><path style="opacity:0.901" fill="#020508" d="M 819.5,2047.5 C 818.833,2047.5 818.167,2047.5 817.5,2047.5C 674.352,1944.53 548.519,1823.19 440,1683.5C 311.162,1512.17 215.162,1323.17 152,1116.5C 110.575,980.043 80.9081,841.043 63,699.5C 42.9055,538.467 33.0722,376.8 33.5,214.5C 33.9709,143.801 35.6376,73.1345 38.5,2.5C 558.5,2.5 1078.5,2.5 1598.5,2.5C 1606.78,185.007 1603.94,367.34 1590,549.5C 1576.63,723.362 1546.97,894.362 1501,1062.5C 1444.69,1266.09 1357.02,1454.42 1238,1627.5C 1136.75,1770.09 1016.91,1895.26 878.5,2003C 858.933,2018.08 839.266,2032.91 819.5,2047.5 Z"/></g>
<g><path style="opacity:1" fill="#0084c9" d="M 42.5,6.5 C 559.833,6.5 1077.17,6.5 1594.5,6.5C 1605.91,237.893 1597.74,468.56 1570,698.5C 1549.89,855.852 1515.22,1009.85 1466,1160.5C 1344.53,1524.35 1128.69,1818.02 818.5,2041.5C 516.235,1823.96 303.402,1538.96 180,1186.5C 124.686,1025.21 86.6859,859.873 66,690.5C 43.3865,499.841 34.3865,308.507 39,116.5C 40.3749,79.8376 41.5415,43.171 42.5,6.5 Z"/></g>
<g><path style="opacity:1" fill="#0c0f11" d="M 518.5,858.5 C 519.289,858.217 519.956,857.717 520.5,857C 515.177,856.501 509.844,856.334 504.5,856.5C 500.381,856.512 496.548,855.512 493,853.5C 493.824,850.199 495.49,847.199 498,844.5C 502.5,840 507,835.5 511.5,831C 525.34,821.914 539.007,812.581 552.5,803C 554.563,800.489 556.063,797.656 557,794.5C 557.667,787.5 557.667,780.5 557,773.5C 554.144,768.309 549.644,765.476 543.5,765C 534.105,764.114 524.772,764.447 515.5,766C 504.174,769.99 496.008,777.49 491,788.5C 483.359,811.728 476.026,835.062 469,858.5C 458.581,882.59 440.914,898.59 416,906.5C 415.228,906.355 414.561,906.022 414,905.5C 413.025,897.707 413.525,890.041 415.5,882.5C 415.167,882.167 414.833,881.833 414.5,881.5C 400.734,890.025 385.734,894.025 369.5,893.5C 369.039,880.638 371.705,868.472 377.5,857C 373.867,857.422 370.2,858.089 366.5,859C 362.167,859.667 357.833,859.667 353.5,859C 352.402,856.502 352.568,854.002 354,851.5C 358.598,841.893 365.098,833.726 373.5,827C 390.243,814.928 406.409,802.094 422,788.5C 425.607,775.023 424.94,761.689 420,748.5C 413.167,737.667 404.333,728.833 393.5,722C 377.828,712.162 361.828,702.829 345.5,694C 318.979,677.821 295.813,657.655 276,633.5C 265.915,619.332 257.915,603.999 252,587.5C 233.786,526.528 215.786,465.528 198,404.5C 192.3,385.137 181.466,369.303 165.5,357C 160.833,353.667 156.167,350.333 151.5,347C 140.347,340.664 129.347,334.164 118.5,327.5C 144.268,303.778 174.268,287.611 208.5,279C 249.334,271.371 280.834,284.871 303,319.5C 313.194,338.555 322.861,357.888 332,377.5C 361.394,427.311 405.227,454.478 463.5,459C 500.089,459.252 535.423,465.918 569.5,479C 600.673,492.248 630.007,508.581 657.5,528C 699.665,559.831 742.665,590.498 786.5,620C 814.472,637.823 843.806,653.323 874.5,666.5C 875.663,668.55 875.496,670.55 874,672.5C 863.856,686.164 850.356,694.664 833.5,698C 823.767,699.936 813.934,700.769 804,700.5C 787.148,700.058 770.315,699.224 753.5,698C 739.5,697.333 725.5,697.333 711.5,698C 683.431,701.423 662.265,715.257 648,739.5C 639.502,754.171 633.502,769.837 630,786.5C 626.258,806.1 622.925,825.767 620,845.5C 611.461,868.76 598.294,888.927 580.5,906C 570.652,914.257 559.318,917.924 546.5,917C 544.611,908.194 545.611,899.694 549.5,891.5C 549,891.167 548.5,890.833 548,890.5C 535.867,896.85 523.2,898.516 510,895.5C 507.648,881.911 510.482,869.578 518.5,858.5 Z"/></g>
<g><path style="opacity:1" fill="#fefefe" d="M 215.5,281.5 C 254.229,277.279 283.063,291.946 302,325.5C 311.272,343.71 320.272,362.044 329,380.5C 359.329,430.946 404.162,458.446 463.5,463C 508.503,463.114 551.169,473.114 591.5,493C 609.659,502.576 627.326,512.91 644.5,524C 689.555,556.721 734.888,589.055 780.5,621C 795.167,629.667 809.833,638.333 824.5,647C 839.864,654.682 855.198,662.349 870.5,670C 864.286,679.204 855.952,685.871 845.5,690C 832.243,694.765 818.577,696.932 804.5,696.5C 788.15,695.999 771.817,695.166 755.5,694C 691.197,683.536 649.364,709.036 630,770.5C 623.828,794.864 619.161,819.531 616,844.5C 607.671,867.691 594.504,887.524 576.5,904C 568.536,910.044 559.536,913.211 549.5,913.5C 548.732,903.57 551.232,894.57 557,886.5C 557.684,885.216 557.517,884.049 556.5,883C 548.957,885.966 541.29,888.966 533.5,892C 526.88,893.137 520.214,893.637 513.5,893.5C 511.794,879.116 515.961,866.782 526,856.5C 527.128,854.655 527.628,852.655 527.5,850.5C 517.864,852.858 508.198,853.025 498.5,851C 502.791,844.375 508.124,838.709 514.5,834C 526.833,825.667 539.167,817.333 551.5,809C 558.007,804.154 561.507,797.654 562,789.5C 563.45,781.324 562.117,773.657 558,766.5C 555.246,764.873 552.412,763.373 549.5,762C 517.693,753.457 495.86,764.29 484,794.5C 478.337,813.817 472.67,833.15 467,852.5C 458.765,874.069 444.265,889.902 423.5,900C 421.564,900.813 419.564,901.313 417.5,901.5C 416.834,892.662 418.168,884.162 421.5,876C 421.387,874.72 420.72,873.887 419.5,873.5C 405.934,883.8 390.601,889.134 373.5,889.5C 373.829,874.847 378.162,861.514 386.5,849.5C 386.113,848.28 385.28,847.613 384,847.5C 376.024,853.104 367.191,855.77 357.5,855.5C 359.908,847.534 364.241,840.701 370.5,835C 385.5,823.333 400.5,811.667 415.5,800C 419.054,796.446 422.554,792.946 426,789.5C 429.643,775.342 428.977,761.342 424,747.5C 421.443,742.277 418.109,737.61 414,733.5C 409.5,729.667 405,725.833 400.5,722C 383.022,710.537 365.022,699.87 346.5,690C 320.596,673.437 297.763,653.27 278,629.5C 269.441,617.051 262.441,603.717 257,589.5C 238.356,527.591 220.023,465.591 202,403.5C 196.269,383.86 185.436,367.694 169.5,355C 155.34,344.414 140.34,335.081 124.5,327C 144.289,310.432 166.289,297.432 190.5,288C 198.822,285.337 207.156,283.17 215.5,281.5 Z"/></g>
<g><path style="opacity:1" fill="#0c0f11" d="M 852.5,281.5 C 890.02,276.702 918.854,290.035 939,321.5C 949.527,341.221 959.527,361.221 969,381.5C 995.673,427.287 1035.51,453.787 1088.5,461C 1150.07,460.974 1207.07,476.974 1259.5,509C 1302.71,537.771 1345.04,567.771 1386.5,599C 1426.33,626.922 1468.33,651.255 1512.5,672C 1509.15,679.355 1504.15,685.355 1497.5,690C 1479.92,700.219 1460.92,705.052 1440.5,704.5C 1421.81,703.665 1403.15,702.499 1384.5,701C 1330.38,693.624 1293.54,715.124 1274,765.5C 1265.97,792.637 1260.3,820.304 1257,848.5C 1248.26,872.87 1234.43,893.703 1215.5,911C 1205.74,918.258 1194.91,921.425 1183,920.5C 1181.89,911.145 1182.89,902.145 1186,893.5C 1173.89,899.787 1161.06,901.954 1147.5,900C 1144.2,885.539 1147.2,872.539 1156.5,861C 1150.17,860.667 1143.83,860.333 1137.5,860C 1135.12,859.489 1132.79,858.822 1130.5,858C 1129.98,857.439 1129.64,856.772 1129.5,856C 1133.69,848.799 1139.03,842.466 1145.5,837C 1160.93,826.535 1176.1,815.701 1191,804.5C 1192,802.167 1193,799.833 1194,797.5C 1194.67,790.833 1194.67,784.167 1194,777.5C 1193.21,775.413 1192.04,773.579 1190.5,772C 1174.72,765.858 1159.05,766.191 1143.5,773C 1135.03,779.742 1128.87,788.242 1125,798.5C 1119.17,819.676 1112.83,840.676 1106,861.5C 1096.92,881.913 1082.42,897.08 1062.5,907C 1058.76,909.045 1054.93,909.545 1051,908.5C 1050.44,900.78 1050.44,893.114 1051,885.5C 1037.17,894.55 1022.01,898.217 1005.5,896.5C 1005.96,883.868 1008.96,871.868 1014.5,860.5C 1014.17,860.167 1013.83,859.833 1013.5,859.5C 1006.2,863.025 998.533,864.192 990.5,863C 989.409,860.936 989.242,858.769 990,856.5C 994.006,847.328 999.839,839.495 1007.5,833C 1025.25,819.925 1042.41,806.092 1059,791.5C 1062.9,777.534 1061.9,763.867 1056,750.5C 1048.79,740.29 1039.96,731.79 1029.5,725C 1012,714.414 994.331,704.081 976.5,694C 952.554,678.393 931.387,659.559 913,637.5C 902.915,623.332 894.915,607.999 889,591.5C 870.372,530.696 852.372,469.696 835,408.5C 830.165,390.661 820.665,375.827 806.5,364C 791.564,352.417 775.564,342.417 758.5,334C 757.272,333.221 756.272,332.221 755.5,331C 775.284,313.256 797.617,299.256 822.5,289C 832.44,285.652 842.44,283.152 852.5,281.5 Z"/></g>
<g><path style="opacity:1" fill="#fefefe" d="M 1192.5,916.5 C 1190.83,916.5 1189.17,916.5 1187.5,916.5C 1187.5,913.167 1187.5,909.833 1187.5,906.5C 1188.15,899.867 1190.48,893.867 1194.5,888.5C 1194.11,887.28 1193.28,886.613 1192,886.5C 1179.17,893.999 1165.34,897.333 1150.5,896.5C 1148.76,881.552 1153.26,868.885 1164,858.5C 1164.49,857.207 1164.66,855.873 1164.5,854.5C 1158.74,855.729 1152.91,856.395 1147,856.5C 1142.96,856.709 1139.13,856.043 1135.5,854.5C 1139.61,848.885 1144.28,843.719 1149.5,839C 1164.61,828.889 1179.44,818.389 1194,807.5C 1196.13,803.768 1197.47,799.768 1198,795.5C 1198.67,789.167 1198.67,782.833 1198,776.5C 1196.4,770.562 1192.56,767.062 1186.5,766C 1173.06,762.424 1159.73,762.757 1146.5,767C 1138.16,771.151 1131.66,777.318 1127,785.5C 1122.87,792.596 1119.7,800.096 1117.5,808C 1113.14,825.748 1107.97,843.248 1102,860.5C 1092.82,882.344 1077.16,897.344 1055,905.5C 1054.33,900.167 1054.33,894.833 1055,889.5C 1056.36,885.595 1057.19,881.595 1057.5,877.5C 1050.21,881.813 1042.54,885.646 1034.5,889C 1029.02,891.025 1023.35,892.192 1017.5,892.5C 1015.17,892.5 1012.83,892.5 1010.5,892.5C 1010.5,890.833 1010.5,889.167 1010.5,887.5C 1011.66,875.838 1015.5,865.171 1022,855.5C 1022.49,854.207 1022.66,852.873 1022.5,851.5C 1017.97,852.763 1013.63,854.597 1009.5,857C 1004.62,858.636 999.625,859.469 994.5,859.5C 994.799,855.895 995.965,852.561 998,849.5C 1010.5,835.342 1024.67,823.175 1040.5,813C 1047.96,807.207 1055.13,801.041 1062,794.5C 1066.93,779.318 1066.26,764.318 1060,749.5C 1053.88,739.711 1046.04,731.544 1036.5,725C 1018.83,713.83 1000.83,703.163 982.5,693C 955.897,676.068 932.731,655.235 913,630.5C 905.36,618.887 899.026,606.553 894,593.5C 874.868,530.637 856.201,467.637 838,404.5C 832.483,387.964 823.316,373.798 810.5,362C 795.186,350.004 778.853,339.504 761.5,330.5C 782.397,312.378 806.064,298.878 832.5,290C 852.728,284.423 873.061,284.09 893.5,289C 913.984,296.482 929.151,309.982 939,329.5C 947.939,347.044 956.605,364.71 965,382.5C 992.296,429.748 1033.13,457.248 1087.5,465C 1142.56,464.674 1194.23,477.674 1242.5,504C 1265.85,517.67 1288.51,532.337 1310.5,548C 1348.39,577.221 1387.39,604.887 1427.5,631C 1453.33,646.643 1480,660.81 1507.5,673.5C 1497.57,686.978 1484.23,695.144 1467.5,698C 1458.58,699.709 1449.58,700.542 1440.5,700.5C 1422.47,699.662 1404.47,698.496 1386.5,697C 1329.56,689.033 1290.72,711.533 1270,764.5C 1261.78,791.62 1256.11,819.287 1253,847.5C 1245.23,869.561 1233.06,888.728 1216.5,905C 1209.47,910.871 1201.47,914.704 1192.5,916.5 Z"/></g>
<g><path style="opacity:1" fill="#131313" d="M 208.5,301.5 C 217.354,300.964 225.688,302.797 233.5,307C 234.337,308.011 234.67,309.178 234.5,310.5C 228.207,308.303 221.707,306.97 215,306.5C 212.833,306.667 210.667,306.833 208.5,307C 211.476,311.094 210.809,314.427 206.5,317C 200.754,318.723 196.254,317.223 193,312.5C 191.644,313.38 190.144,313.714 188.5,313.5C 188.297,311.61 188.963,310.11 190.5,309C 196.27,305.605 202.27,303.105 208.5,301.5 Z"/></g>
<g><path style="opacity:1" fill="#0d0d0d" d="M 842.5,305.5 C 850.781,304.829 858.781,305.995 866.5,309C 868.555,309.687 870.221,310.854 871.5,312.5C 871.113,313.72 870.28,314.387 869,314.5C 861.279,310.528 853.112,309.028 844.5,310C 848.838,314.977 847.838,318.643 841.5,321C 836.186,322.26 832.353,320.426 830,315.5C 828.069,318.105 826.236,318.105 824.5,315.5C 824.977,314.522 825.643,313.689 826.5,313C 831.804,310.178 837.137,307.678 842.5,305.5 Z"/></g>
<g><path style="opacity:1" fill="#003d5e" d="M 504.5,856.5 C 509.844,856.334 515.177,856.501 520.5,857C 519.956,857.717 519.289,858.217 518.5,858.5C 513.833,857.833 509.167,857.167 504.5,856.5 Z"/></g>
<g><path style="opacity:1" fill="#6d6d6d" d="M 1010.5,887.5 C 1010.5,889.167 1010.5,890.833 1010.5,892.5C 1012.83,892.5 1015.17,892.5 1017.5,892.5C 1015.05,893.473 1012.39,893.806 1009.5,893.5C 1009.21,891.265 1009.54,889.265 1010.5,887.5 Z"/></g>
<g><path style="opacity:1" fill="#aeaeae" d="M 1187.5,906.5 C 1187.5,909.833 1187.5,913.167 1187.5,916.5C 1189.17,916.5 1190.83,916.5 1192.5,916.5C 1190.74,917.461 1188.74,917.795 1186.5,917.5C 1186.19,913.629 1186.52,909.962 1187.5,906.5 Z"/></g>
<g><path style="opacity:1" fill="#0c0f11" d="M 830.5,1582.5 C 831.289,1582.22 831.956,1581.72 832.5,1581C 826.843,1580.5 821.176,1580.33 815.5,1580.5C 812.834,1580.07 810.168,1579.57 807.5,1579C 806.09,1578.63 805.09,1577.8 804.5,1576.5C 809.569,1568.93 815.569,1562.09 822.5,1556C 836.5,1546.33 850.5,1536.67 864.5,1527C 866.563,1524.49 868.063,1521.66 869,1518.5C 869.667,1511.5 869.667,1504.5 869,1497.5C 865.869,1492.01 861.035,1489.18 854.5,1489C 831.157,1483.98 813.991,1491.81 803,1512.5C 795.359,1535.73 788.026,1559.06 781,1582.5C 770.581,1606.59 752.914,1622.59 728,1630.5C 727.228,1630.36 726.561,1630.02 726,1629.5C 725.025,1621.71 725.525,1614.04 727.5,1606.5C 727.167,1606.17 726.833,1605.83 726.5,1605.5C 712.865,1614.5 697.865,1618.5 681.5,1617.5C 681.039,1604.64 683.705,1592.47 689.5,1581C 686.43,1581.02 683.43,1581.68 680.5,1583C 675.5,1583.67 670.5,1583.67 665.5,1583C 664.402,1580.5 664.568,1578 666,1575.5C 670.26,1566.23 676.427,1558.4 684.5,1552C 701.577,1539.59 718.077,1526.43 734,1512.5C 740.901,1487.58 734.068,1467.41 713.5,1452C 693.693,1438.87 673.359,1426.54 652.5,1415C 632.093,1401.19 613.259,1385.35 596,1367.5C 577.474,1344.78 564.474,1319.12 557,1290.5C 541.538,1236.45 525.871,1182.45 510,1128.5C 504.3,1109.14 493.466,1093.3 477.5,1081C 462.21,1070.54 446.544,1060.71 430.5,1051.5C 456.258,1027.78 486.258,1011.62 520.5,1003C 561.358,995.377 592.858,1008.88 615,1043.5C 625.194,1062.55 634.861,1081.89 644,1101.5C 673.207,1150.95 716.707,1178.12 774.5,1183C 826.843,1183.33 875.843,1196.33 921.5,1222C 943.974,1234.82 965.64,1248.82 986.5,1264C 1024,1292.5 1062.33,1319.83 1101.5,1346C 1128.91,1363.21 1157.58,1378.04 1187.5,1390.5C 1187.45,1393.93 1186.29,1396.93 1184,1399.5C 1173.47,1411.52 1160.3,1419.02 1144.5,1422C 1120.52,1425.11 1096.52,1425.11 1072.5,1422C 1000.76,1410.46 957.265,1439.96 942,1510.5C 938.258,1530.1 934.925,1549.77 932,1569.5C 923.461,1592.76 910.294,1612.93 892.5,1630C 882.667,1638.28 871.333,1641.94 858.5,1641C 856.611,1632.19 857.611,1623.69 861.5,1615.5C 861.167,1615.17 860.833,1614.83 860.5,1614.5C 848.504,1621 835.838,1623 822.5,1620.5C 819.483,1606.58 822.149,1593.91 830.5,1582.5 Z"/></g>
<g><path style="opacity:1" fill="#fefefe" d="M 528.5,1005.5 C 564.315,1001.5 591.815,1014.5 611,1044.5C 621.527,1064.22 631.527,1084.22 641,1104.5C 665.311,1146.78 701.478,1172.95 749.5,1183C 779.474,1186.89 809.474,1190.55 839.5,1194C 876.378,1203.27 910.711,1218.27 942.5,1239C 993.325,1275.25 1044.32,1311.25 1095.5,1347C 1123.2,1364.44 1152.04,1379.94 1182,1393.5C 1181.25,1395.98 1179.92,1398.31 1178,1400.5C 1168.24,1409.63 1156.74,1415.46 1143.5,1418C 1134.44,1419.94 1125.28,1420.77 1116,1420.5C 1102.14,1420.1 1088.31,1419.26 1074.5,1418C 1057.17,1417.33 1039.83,1417.33 1022.5,1418C 996.462,1421.09 975.962,1433.26 961,1454.5C 947.959,1474.28 939.626,1495.95 936,1519.5C 933.415,1535.84 930.749,1552.18 928,1568.5C 919.671,1591.69 906.504,1611.52 888.5,1628C 880.536,1634.04 871.536,1637.21 861.5,1637.5C 860.732,1627.57 863.232,1618.57 869,1610.5C 869.684,1609.22 869.517,1608.05 868.5,1607C 860.957,1609.97 853.29,1612.97 845.5,1616C 838.897,1617.27 832.23,1617.77 825.5,1617.5C 823.794,1603.12 827.961,1590.78 838,1580.5C 839.009,1578.98 839.509,1577.31 839.5,1575.5C 833.854,1576.27 828.187,1576.94 822.5,1577.5C 818.238,1577.61 814.238,1576.78 810.5,1575C 814.791,1568.38 820.124,1562.71 826.5,1558C 840.915,1548.75 854.915,1538.92 868.5,1528.5C 875.278,1516.89 876.111,1504.89 871,1492.5C 867.984,1488.91 864.151,1486.74 859.5,1486C 828.403,1477.96 807.236,1488.8 796,1518.5C 790.337,1537.82 784.67,1557.15 779,1576.5C 770.765,1598.07 756.265,1613.9 735.5,1624C 733.564,1624.81 731.564,1625.31 729.5,1625.5C 728.834,1616.66 730.168,1608.16 733.5,1600C 733.387,1598.72 732.72,1597.89 731.5,1597.5C 717.913,1607.81 702.58,1613.14 685.5,1613.5C 685.618,1599.98 689.452,1587.65 697,1576.5C 697.49,1575.21 697.657,1573.87 697.5,1572.5C 691.66,1574.08 685.993,1576.25 680.5,1579C 676.848,1579.5 673.182,1579.67 669.5,1579.5C 670.511,1575.14 672.344,1571.14 675,1567.5C 679.833,1562.67 684.667,1557.83 689.5,1553C 706.586,1540.91 722.753,1527.74 738,1513.5C 742.723,1496.34 740.723,1480.01 732,1464.5C 725.802,1457.97 719.302,1451.8 712.5,1446C 695.022,1434.54 677.022,1423.87 658.5,1414C 632.596,1397.44 609.763,1377.27 590,1353.5C 581.441,1341.05 574.441,1327.72 569,1313.5C 550.356,1251.59 532.023,1189.59 514,1127.5C 508.269,1107.86 497.436,1091.69 481.5,1079C 467.297,1068.48 452.297,1059.15 436.5,1051C 457.173,1033.82 480.173,1020.49 505.5,1011C 513.341,1009.29 521.007,1007.46 528.5,1005.5 Z"/></g>
<g><path style="opacity:1" fill="#0d0d0d" d="M 517.5,1026.5 C 527.258,1025.52 536.591,1027.02 545.5,1031C 546.337,1032.01 546.67,1033.18 546.5,1034.5C 542.307,1034.05 538.307,1032.88 534.5,1031C 529.5,1030.33 524.5,1030.33 519.5,1031C 523.582,1034.7 523.249,1038.03 518.5,1041C 512.754,1042.72 508.254,1041.22 505,1036.5C 503.644,1037.38 502.144,1037.71 500.5,1037.5C 500.297,1035.61 500.963,1034.11 502.5,1033C 507.381,1030.22 512.381,1028.05 517.5,1026.5 Z"/></g>
<g><path style="opacity:1" fill="#003a58" d="M 815.5,1580.5 C 821.176,1580.33 826.843,1580.5 832.5,1581C 831.956,1581.72 831.289,1582.22 830.5,1582.5C 825.5,1581.83 820.5,1581.17 815.5,1580.5 Z"/></g>
</svg>
